<svg width="49" height="33" viewBox="0 0 49 33" fill="none" xmlns="http://www.w3.org/2000/svg">
<path d="M14.6515 13.8419C14.5553 13.5444 14.2915 13.3332 13.9793 13.305L9.73947 12.9201L8.06292 8.9959C7.9393 8.70832 7.65776 8.52216 7.34495 8.52216C7.03215 8.52216 6.75061 8.70832 6.62699 8.99658L4.95043 12.9201L0.709893 13.305C0.398319 13.3338 0.135163 13.5444 0.0384405 13.8419C-0.0582818 14.1393 0.0310434 14.4656 0.266741 14.6713L3.47158 17.4819L2.52655 21.6448C2.45739 21.9509 2.5762 22.2673 2.83016 22.4508C2.96667 22.5495 3.12638 22.5997 3.28744 22.5997C3.4263 22.5997 3.56404 22.5622 3.68766 22.4883L7.34495 20.3024L11.0009 22.4883C11.2684 22.6492 11.6057 22.6345 11.8591 22.4508C12.1131 22.2667 12.2318 21.9502 12.1627 21.6448L11.2177 17.4819L14.4225 14.6718C14.6582 14.4656 14.7482 14.1399 14.6515 13.8419Z" fill="#FFC107"/>
<path d="M30.5746 17.7833H32.0248V19.8311H30.5746V22.5997H28.0345V19.8311H22.7875L22.6732 18.2315L28.0082 9.8028H30.5746V17.7833ZM25.2045 17.7833H28.0345V13.2657L27.8676 13.5557L25.2045 17.7833ZM33.6332 21.3516C33.6332 20.9473 33.7679 20.6192 34.0375 20.3672C34.3129 20.1153 34.6556 19.9893 35.0658 19.9893C35.4818 19.9893 35.8246 20.1153 36.0941 20.3672C36.3695 20.6192 36.5072 20.9473 36.5072 21.3516C36.5072 21.7501 36.3724 22.0753 36.1029 22.3272C35.8334 22.5733 35.4877 22.6964 35.0658 22.6964C34.6498 22.6964 34.307 22.5733 34.0375 22.3272C33.7679 22.0753 33.6332 21.7501 33.6332 21.3516ZM39.0121 16.3067L39.7504 9.8028H46.9222V11.921H41.8334L41.517 14.6719C42.1205 14.3497 42.7621 14.1885 43.4418 14.1885C44.6605 14.1885 45.6156 14.5665 46.307 15.3223C46.9984 16.0782 47.3441 17.1358 47.3441 18.4952C47.3441 19.3214 47.1683 20.0626 46.8168 20.7188C46.4711 21.3692 45.973 21.876 45.3226 22.2393C44.6722 22.5967 43.9047 22.7755 43.0199 22.7755C42.2465 22.7755 41.5287 22.6202 40.8666 22.3096C40.2045 21.9932 39.6801 21.5508 39.2933 20.9825C38.9125 20.4141 38.7103 19.7667 38.6869 19.0401H41.2006C41.2533 19.5733 41.4379 19.9893 41.7543 20.2881C42.0765 20.5811 42.4955 20.7276 43.0111 20.7276C43.5853 20.7276 44.0277 20.5225 44.3383 20.1124C44.6488 19.6964 44.8041 19.1104 44.8041 18.3546C44.8041 17.628 44.6254 17.0714 44.2679 16.6846C43.9105 16.2979 43.4037 16.1046 42.7474 16.1046C42.1439 16.1046 41.6547 16.2628 41.2797 16.5792L41.0336 16.8077L39.0121 16.3067Z" fill="#FFC107"/>
</svg>
